<svg width="16" height="16" viewBox="0 0 16 16" fill="none" xmlns="http://www.w3.org/2000/svg">
<path d="M0.799241 13.9247C0.408717 14.3153 0.408717 14.9484 0.799241 15.3389C1.18977 15.7295 1.82293 15.7295 2.21345 15.3389L0.799241 13.9247ZM15.5063 1.63184C15.5063 1.07955 15.0586 0.631837 14.5063 0.631836L5.50635 0.631837C4.95406 0.631836 4.50635 1.07955 4.50635 1.63184C4.50635 2.18412 4.95406 2.63184 5.50635 2.63184H13.5063L13.5063 10.6318C13.5063 11.1841 13.9541 11.6318 14.5063 11.6318C15.0586 11.6318 15.5063 11.1841 15.5063 10.6318L15.5063 1.63184ZM2.21345 15.3389L15.2135 2.33894L13.7992 0.92473L0.799241 13.9247L2.21345 15.3389Z" fill="white"/>
</svg>
